<svg xmlns="http://www.w3.org/2000/svg" class="icon icon-tabler icon-tabler-file-text" width="250px" height="250px" viewBox="0 0 24 24" stroke-width="1.28" stroke="rgba(255, 255, 255, 1)" fill="rgba(228, 228, 228, 0.18)" stroke-linecap="round" stroke-linejoin="round"><circle cx="50%" cy="50%" r="50%" stroke="none" stroke-width="0" fill="rgba(0, 0, 0, 1)"/><g transform="translate(3.12, 3.12) scale(0.74)"><path stroke="none" d="M0 0h24v24H0z" fill="none"/><path d="M14 3v4a1 1 0 0 0 1 1h4"/><path d="M17 21h-10a2 2 0 0 1 -2 -2v-14a2 2 0 0 1 2 -2h7l5 5v11a2 2 0 0 1 -2 2z"/><line x1="9" y1="9" x2="10" y2="9"/><line x1="9" y1="13" x2="15" y2="13"/><line x1="9" y1="17" x2="15" y2="17"/></g>
  
  
  
  
  
  
</svg>